<?xml version="1.0" ?><!-- Uploaded to: SVG Repo, www.svgrepo.com, Generator: SVG Repo Mixer Tools -->
<svg width="800px" height="800px" viewBox="0 0 64 64" data-name="Layer 1" id="Layer_1" xmlns="http://www.w3.org/2000/svg"><defs><style>.cls-1{fill:#0074ff;}.cls-2{fill:#ffb300;}</style></defs><title/><path class="cls-1" d="M32,60A28,28,0,1,1,44.25,6.81a2,2,0,0,1-1.75,3.6A24,24,0,1,0,49,15.05a2,2,0,0,1,2.83-2.83A28,28,0,0,1,32,60Z"/><path class="cls-2" d="M32,38.26a2,2,0,0,1-2-2v-18a2,2,0,0,1,4,0v18A2,2,0,0,1,32,38.26Z"/><path class="cls-2" d="M32,47.74a2,2,0,0,1-1.41-.58L22.1,38.67a2,2,0,0,1,2.83-2.83L32,42.91l7.07-7.07a2,2,0,0,1,2.83,2.83l-8.49,8.49A2,2,0,0,1,32,47.74Z"/></svg>